{"asset":{"version":"2.0","generator":"Blockbench 4.12.2 glTF exporter"},"scenes":[{"nodes":[2],"name":"blockbench_export"}],"scene":0,"nodes":[{"translation":[-0.03125,0.65625,0],"name":"sphere","mesh":0},{"translation":[-0.046875,0,0],"name":"cylinder","mesh":1},{"children":[0,1]}],"bufferViews":[{"buffer":0,"byteOffset":0,"byteLength":1728,"target":34962,"byteStride":12},{"buffer":0,"byteOffset":1728,"byteLength":1728,"target":34962,"byteStride":12},{"buffer":0,"byteOffset":3456,"byteLength":1152,"target":34962,"byteStride":8},{"buffer":0,"byteOffset":4608,"byteLength":384,"target":34963},{"buffer":0,"byteOffset":4992,"byteLength":5184,"target":34962,"byteStride":12},{"buffer":0,"byteOffset":10176,"byteLength":5184,"target":34962,"byteStride":12},{"buffer":0,"byteOffset":15360,"byteLength":3456,"target":34962,"byteStride":8},{"buffer":0,"byteOffset":18816,"byteLength":1248,"target":34963}],"buffers":[{"byteLength":20064,"uri":"data:application/octet-stream;base64,"}],"accessors":[{"bufferView":0,"componentType":5126,"count":144,"max":[0.3984375,0.546875,0.2455127090215683],"min":[-0.375,-0.453125,-0.2455127090215683],"type":"VEC3"},{"bufferView":1,"componentType":5126,"count":144,"max":[0.87718665599823,0.9661409854888916,1],"min":[-0.8298296332359314,-0.8938591480255127,-1],"type":"VEC3"},{"bufferView":2,"componentType":5126,"count":144,"max":[0.515625,0.53125],"min":[0,0],"type":"VEC2"},{"bufferView":3,"componentType":5123,"count":192,"max":[143],"min":[0],"type":"SCALAR"},{"bufferView":4,"componentType":5126,"count":432,"max":[0.12422526627779007,0.53125,0.078125],"min":[-0.06172527000308037,0,-0.0625],"type":"VEC3"},{"bufferView":5,"componentType":5126,"count":432,"max":[0.8934198021888733,1,1],"min":[-0.9277551174163818,-1,-1],"type":"VEC3"},{"bufferView":6,"componentType":5126,"count":432,"max":[0.5547749996185303,0.5345239639282227],"min":[0,0],"type":"VEC2"},{"bufferView":7,"componentType":5123,"count":624,"max":[431],"min":[0],"type":"SCALAR"}],"materials":[{"pbrMetallicRoughness":{"metallicFactor":0,"roughnessFactor":1,"baseColorTexture":{"index":0}},"alphaMode":"MASK","alphaCutoff":0.05,"doubleSided":true},{"pbrMetallicRoughness":{"metallicFactor":0,"roughnessFactor":1,"baseColorTexture":{"index":1}},"alphaMode":"MASK","alphaCutoff":0.05,"doubleSided":true}],"textures":[{"sampler":0,"source":0,"name":"tall_tree_top_tex"},{"sampler":1,"source":1,"name":"tall_tree_bottom"}],"samplers":[{"magFilter":9728,"minFilter":9728,"wrapS":33071,"wrapT":33071},{"magFilter":9728,"minFilter":9728,"wrapS":33071,"wrapT":33071}],"images":[{"mimeType":"image/png","uri":"data:image/png;base64,"},{"mimeType":"image/png","uri":"data:image/png;base64,"}],"meshes":[{"primitives":[{"mode":4,"attributes":{"POSITION":0,"NORMAL":1,"TEXCOORD_0":2},"indices":3,"material":0}]},{"primitives":[{"mode":4,"attributes":{"POSITION":4,"NORMAL":5,"TEXCOORD_0":6},"indices":7,"material":1}]}]}