{"asset":{"version":"2.0","generator":"Blockbench 4.12.2 glTF exporter"},"scenes":[{"nodes":[4],"name":"blockbench_export"}],"scene":0,"nodes":[{"translation":[-0.046875,0,0],"name":"cylinder","mesh":0},{"translation":[-0.078125,0.75,-0.046875],"name":"small tree","mesh":1},{"translation":[0.171875,0.625,-0.046875],"name":"small tree","mesh":2},{"translation":[-0.25,0.625,0.046875],"name":"small tree","mesh":3},{"children":[0,1,2,3]}],"bufferViews":[{"buffer":0,"byteOffset":0,"byteLength":5184,"target":34962,"byteStride":12},{"buffer":0,"byteOffset":5184,"byteLength":5184,"target":34962,"byteStride":12},{"buffer":0,"byteOffset":10368,"byteLength":3456,"target":34962,"byteStride":8},{"buffer":0,"byteOffset":13824,"byteLength":1248,"target":34963},{"buffer":0,"byteOffset":15072,"byteLength":1728,"target":34962,"byteStride":12},{"buffer":0,"byteOffset":16800,"byteLength":1728,"target":34962,"byteStride":12},{"buffer":0,"byteOffset":18528,"byteLength":1152,"target":34962,"byteStride":8},{"buffer":0,"byteOffset":19680,"byteLength":384,"target":34963},{"buffer":0,"byteOffset":20064,"byteLength":1728,"target":34962,"byteStride":12},{"buffer":0,"byteOffset":21792,"byteLength":1728,"target":34962,"byteStride":12},{"buffer":0,"byteOffset":23520,"byteLength":1152,"target":34962,"byteStride":8},{"buffer":0,"byteOffset":24672,"byteLength":384,"target":34963},{"buffer":0,"byteOffset":25056,"byteLength":1728,"target":34962,"byteStride":12},{"buffer":0,"byteOffset":26784,"byteLength":1728,"target":34962,"byteStride":12},{"buffer":0,"byteOffset":28512,"byteLength":1152,"target":34962,"byteStride":8},{"buffer":0,"byteOffset":29664,"byteLength":384,"target":34963}],"buffers":[{"byteLength":30048,"uri":"data:application/octet-stream;base64,"}],"accessors":[{"bufferView":0,"componentType":5126,"count":432,"max":[0.12422526627779007,0.53125,0.078125],"min":[-0.06172527000308037,0,-0.0625],"type":"VEC3"},{"bufferView":1,"componentType":5126,"count":432,"max":[0.8934198021888733,1,1],"min":[-0.9277551174163818,-1,-1],"type":"VEC3"},{"bufferView":2,"componentType":5126,"count":432,"max":[0.5547749996185303,0.5345239639282227],"min":[0,0],"type":"VEC2"},{"bufferView":3,"componentType":5123,"count":624,"max":[431],"min":[0],"type":"SCALAR"},{"bufferView":4,"componentType":5126,"count":144,"max":[0.3984375,0.296875,0.2455127090215683],"min":[-0.375,-0.296875,-0.2455127090215683],"type":"VEC3"},{"bufferView":5,"componentType":5126,"count":144,"max":[0.8767973184585571,0.9896541237831116,1],"min":[-0.8071022629737854,-0.9197594523429871,-1],"type":"VEC3"},{"bufferView":6,"componentType":5126,"count":144,"max":[0.8185374736785889,0.8125],"min":[0,0],"type":"VEC2"},{"bufferView":7,"componentType":5123,"count":192,"max":[143],"min":[0],"type":"SCALAR"},{"bufferView":8,"componentType":5126,"count":144,"max":[0.3984375,0.296875,0.2455127090215683],"min":[-0.375,-0.234375,-0.2455127090215683],"type":"VEC3"},{"bufferView":9,"componentType":5126,"count":144,"max":[0.8767973184585571,0.9896541237831116,1],"min":[-0.8071022629737854,-0.9730309247970581,-1],"type":"VEC3"},{"bufferView":10,"componentType":5126,"count":144,"max":[0.8185374736785889,0.8125],"min":[0,0],"type":"VEC2"},{"bufferView":11,"componentType":5123,"count":192,"max":[143],"min":[0],"type":"SCALAR"},{"bufferView":12,"componentType":5126,"count":144,"max":[0.3984375,0.296875,0.2455127090215683],"min":[-0.375,-0.25,-0.2455127090215683],"type":"VEC3"},{"bufferView":13,"componentType":5126,"count":144,"max":[0.8767973184585571,0.9896541237831116,1],"min":[-0.8071022629737854,-0.9618363976478577,-1],"type":"VEC3"},{"bufferView":14,"componentType":5126,"count":144,"max":[0.8185374736785889,0.8125],"min":[0,0],"type":"VEC2"},{"bufferView":15,"componentType":5123,"count":192,"max":[143],"min":[0],"type":"SCALAR"}],"materials":[{"pbrMetallicRoughness":{"metallicFactor":0,"roughnessFactor":1,"baseColorTexture":{"index":0}},"alphaMode":"MASK","alphaCutoff":0.05,"doubleSided":true},{"pbrMetallicRoughness":{"metallicFactor":0,"roughnessFactor":1,"baseColorTexture":{"index":1}},"alphaMode":"MASK","alphaCutoff":0.05,"doubleSided":true}],"textures":[{"sampler":0,"source":0,"name":"tall_tree_bottom"},{"sampler":1,"source":1,"name":"small_tree_text"}],"samplers":[{"magFilter":9728,"minFilter":9728,"wrapS":33071,"wrapT":33071},{"magFilter":9728,"minFilter":9728,"wrapS":33071,"wrapT":33071}],"images":[{"mimeType":"image/png","uri":"data:image/png;base64,"},{"mimeType":"image/png","uri":"data:image/png;base64,"}],"meshes":[{"primitives":[{"mode":4,"attributes":{"POSITION":0,"NORMAL":1,"TEXCOORD_0":2},"indices":3,"material":0}]},{"primitives":[{"mode":4,"attributes":{"POSITION":4,"NORMAL":5,"TEXCOORD_0":6},"indices":7,"material":1}]},{"primitives":[{"mode":4,"attributes":{"POSITION":8,"NORMAL":9,"TEXCOORD_0":10},"indices":11,"material":1}]},{"primitives":[{"mode":4,"attributes":{"POSITION":12,"NORMAL":13,"TEXCOORD_0":14},"indices":15,"material":1}]}]}