{"asset":{"version":"2.0","generator":"Blockbench 4.12.2 glTF exporter"},"scenes":[{"nodes":[23],"name":"blockbench_export"}],"scene":0,"nodes":[{"name":"cuboid","mesh":0},{"name":"upstairs","children":[0]},{"name":"cuboid","mesh":1},{"rotation":[0,-1,0,6.123233995736766e-17],"translation":[-0.421875,0.1875,-3.78125],"name":"cuboid","mesh":2},{"rotation":[0,0.7071067811865475,0,0.7071067811865476],"translation":[1.25,0.1875,-3.4375],"name":"cuboid","mesh":3},{"rotation":[0,0.7071067811865475,0,0.7071067811865476],"translation":[1.03125,0.1875,-2.875],"name":"cuboid","mesh":4},{"rotation":[0,0.7071067811865475,0,0.7071067811865476],"translation":[1.25,1.015625,-3.546875],"name":"cuboid","mesh":5},{"rotation":[0,0.7071067811865475,0,0.7071067811865476],"translation":[0.6890625000000001,0.5187499999999999,-2.8953124999999993],"name":"cuboid","mesh":6},{"name":"kitchen","children":[3,4,5,6,7]},{"translation":[0,-1.640625,0],"name":"downstairs","children":[2,8]},{"translation":[0,1.671875,0.375],"name":"house","children":[1,9]},{"translation":[1.15625,-0.03125,0.375],"name":"cuboid","mesh":7},{"rotation":[0,0.7071067811865475,0,0.7071067811865476],"translation":[-1.640625,-0.03125,-1.3781250000000003],"name":"cuboid","mesh":8},{"translation":[-1.34375,-0.265625,-1.0968750000000003],"name":"cylinder","mesh":9},{"translation":[0.65625,-0.03125,0.375],"name":"cuboid","mesh":10},{"translation":[2.296875,0.25,0],"name":"laundry room","children":[11,12,13,14]},{"rotation":[0,0.7071067811865475,0,0.7071067811865476],"translation":[-0.015625,0,-0.21875],"name":"cuboid","mesh":11},{"translation":[-0.015625,0.515625,0],"name":"cuboid","mesh":12},{"translation":[-0.671875,0,-3.3125],"name":"cylinder","mesh":13},{"rotation":[0,-1,0,6.123233995736766e-17],"translation":[1.921875,-0.109375,-3.09375],"name":"cuboid","mesh":14},{"translation":[0.078125,0.046875,-1.203125],"name":"cuboid","mesh":15},{"rotation":[0,0.7071067811865475,0,0.7071067811865476],"translation":[2.203125,0.234375,-0.21875],"name":"living room","children":[16,17,18,19,20]},{"translation":[1.625,0.234375,-0.6875],"name":"plane","mesh":16},{"children":[10,15,21,22]}],"bufferViews":[{"buffer":0,"byteOffset":0,"byteLength":23376,"target":34962,"byteStride":12},{"buffer":0,"byteOffset":23376,"byteLength":23376,"target":34962,"byteStride":12},{"buffer":0,"byteOffset":46752,"byteLength":15584,"target":34962,"byteStride":8},{"buffer":0,"byteOffset":62336,"byteLength":5844,"target":34963},{"buffer":0,"byteOffset":68180,"byteLength":24864,"target":34962,"byteStride":12},{"buffer":0,"byteOffset":93044,"byteLength":24864,"target":34962,"byteStride":12},{"buffer":0,"byteOffset":117908,"byteLength":16576,"target":34962,"byteStride":8},{"buffer":0,"byteOffset":134484,"byteLength":6216,"target":34963},{"buffer":0,"byteOffset":140700,"byteLength":4416,"target":34962,"byteStride":12},{"buffer":0,"byteOffset":145116,"byteLength":4416,"target":34962,"byteStride":12},{"buffer":0,"byteOffset":149532,"byteLength":2944,"target":34962,"byteStride":8},{"buffer":0,"byteOffset":152476,"byteLength":1104,"target":34963},{"buffer":0,"byteOffset":153580,"byteLength":29472,"target":34962,"byteStride":12},{"buffer":0,"byteOffset":183052,"byteLength":29472,"target":34962,"byteStride":12},{"buffer":0,"byteOffset":212524,"byteLength":19648,"target":34962,"byteStride":8},{"buffer":0,"byteOffset":232172,"byteLength":7368,"target":34963},{"buffer":0,"byteOffset":239540,"byteLength":7776,"target":34962,"byteStride":12},{"buffer":0,"byteOffset":247316,"byteLength":7776,"target":34962,"byteStride":12},{"buffer":0,"byteOffset":255092,"byteLength":5184,"target":34962,"byteStride":8},{"buffer":0,"byteOffset":260276,"byteLength":1944,"target":34963},{"buffer":0,"byteOffset":262220,"byteLength":9120,"target":34962,"byteStride":12},{"buffer":0,"byteOffset":271340,"byteLength":9120,"target":34962,"byteStride":12},{"buffer":0,"byteOffset":280460,"byteLength":6080,"target":34962,"byteStride":8},{"buffer":0,"byteOffset":286540,"byteLength":2280,"target":34963},{"buffer":0,"byteOffset":288820,"byteLength":2208,"target":34962,"byteStride":12},{"buffer":0,"byteOffset":291028,"byteLength":2208,"target":34962,"byteStride":12},{"buffer":0,"byteOffset":293236,"byteLength":1472,"target":34962,"byteStride":8},{"buffer":0,"byteOffset":294708,"byteLength":552,"target":34963},{"buffer":0,"byteOffset":295260,"byteLength":7776,"target":34962,"byteStride":12},{"buffer":0,"byteOffset":303036,"byteLength":7776,"target":34962,"byteStride":12},{"buffer":0,"byteOffset":310812,"byteLength":5184,"target":34962,"byteStride":8},{"buffer":0,"byteOffset":315996,"byteLength":1944,"target":34963},{"buffer":0,"byteOffset":317940,"byteLength":2208,"target":34962,"byteStride":12},{"buffer":0,"byteOffset":320148,"byteLength":2208,"target":34962,"byteStride":12},{"buffer":0,"byteOffset":322356,"byteLength":1472,"target":34962,"byteStride":8},{"buffer":0,"byteOffset":323828,"byteLength":552,"target":34963},{"buffer":0,"byteOffset":324380,"byteLength":2616,"target":34962,"byteStride":12},{"buffer":0,"byteOffset":326996,"byteLength":2616,"target":34962,"byteStride":12},{"buffer":0,"byteOffset":329612,"byteLength":1744,"target":34962,"byteStride":8},{"buffer":0,"byteOffset":331356,"byteLength":636,"target":34963},{"buffer":0,"byteOffset":331992,"byteLength":7584,"target":34962,"byteStride":12},{"buffer":0,"byteOffset":339576,"byteLength":7584,"target":34962,"byteStride":12},{"buffer":0,"byteOffset":347160,"byteLength":5056,"target":34962,"byteStride":8},{"buffer":0,"byteOffset":352216,"byteLength":1896,"target":34963},{"buffer":0,"byteOffset":354112,"byteLength":2208,"target":34962,"byteStride":12},{"buffer":0,"byteOffset":356320,"byteLength":2208,"target":34962,"byteStride":12},{"buffer":0,"byteOffset":358528,"byteLength":1472,"target":34962,"byteStride":8},{"buffer":0,"byteOffset":360000,"byteLength":552,"target":34963},{"buffer":0,"byteOffset":360552,"byteLength":8544,"target":34962,"byteStride":12},{"buffer":0,"byteOffset":369096,"byteLength":8544,"target":34962,"byteStride":12},{"buffer":0,"byteOffset":377640,"byteLength":5696,"target":34962,"byteStride":8},{"buffer":0,"byteOffset":383336,"byteLength":2136,"target":34963},{"buffer":0,"byteOffset":385472,"byteLength":2616,"target":34962,"byteStride":12},{"buffer":0,"byteOffset":388088,"byteLength":2616,"target":34962,"byteStride":12},{"buffer":0,"byteOffset":390704,"byteLength":1744,"target":34962,"byteStride":8},{"buffer":0,"byteOffset":392448,"byteLength":636,"target":34963},{"buffer":0,"byteOffset":393084,"byteLength":53280,"target":34962,"byteStride":12},{"buffer":0,"byteOffset":446364,"byteLength":53280,"target":34962,"byteStride":12},{"buffer":0,"byteOffset":499644,"byteLength":35520,"target":34962,"byteStride":8},{"buffer":0,"byteOffset":535164,"byteLength":13188,"target":34963},{"buffer":0,"byteOffset":548352,"byteLength":12048,"target":34962,"byteStride":12},{"buffer":0,"byteOffset":560400,"byteLength":12048,"target":34962,"byteStride":12},{"buffer":0,"byteOffset":572448,"byteLength":8032,"target":34962,"byteStride":8},{"buffer":0,"byteOffset":580480,"byteLength":3000,"target":34963},{"buffer":0,"byteOffset":583480,"byteLength":48,"target":34962,"byteStride":12},{"buffer":0,"byteOffset":583528,"byteLength":48,"target":34962,"byteStride":12},{"buffer":0,"byteOffset":583576,"byteLength":32,"target":34962,"byteStride":8},{"buffer":0,"byteOffset":583608,"byteLength":12,"target":34963}],"buffers":[{"byteLength":583620,"uri":"data:application/octet-stream;base64,"}],"accessors":[{"bufferView":0,"componentType":5126,"count":1948,"max":[3.9375,1.640625,2.0625],"min":[-1.5,0,-4.3125],"type":"VEC3"},{"bufferView":1,"componentType":5126,"count":1948,"max":[1,1,1],"min":[-1,-1,-1],"type":"VEC3"},{"bufferView":2,"componentType":5126,"count":1948,"max":[1,1.03125],"min":[0,0],"type":"VEC2"},{"bufferView":3,"componentType":5123,"count":2922,"max":[1947],"min":[0],"type":"SCALAR"},{"bufferView":4,"componentType":5126,"count":2072,"max":[3.9375,1.640625,2.0625],"min":[-1.5,0,-4.3125],"type":"VEC3"},{"bufferView":5,"componentType":5126,"count":2072,"max":[1,1,1],"min":[-1,-1,-1],"type":"VEC3"},{"bufferView":6,"componentType":5126,"count":2072,"max":[1,1.03125],"min":[0,0],"type":"VEC2"},{"bufferView":7,"componentType":5123,"count":3108,"max":[2071],"min":[0],"type":"SCALAR"},{"bufferView":8,"componentType":5126,"count":368,"max":[0.5,1.109375,0.296875],"min":[-0.046875,0,-0.3125],"type":"VEC3"},{"bufferView":9,"componentType":5126,"count":368,"max":[1,1,1],"min":[-1,-1,-1],"type":"VEC3"},{"bufferView":10,"componentType":5126,"count":368,"max":[1.859375,2.3663625717163086],"min":[0,0],"type":"VEC2"},{"bufferView":11,"componentType":5123,"count":552,"max":[367],"min":[0],"type":"SCALAR"},{"bufferView":12,"componentType":5126,"count":2456,"max":[0.640625,0.578125,0.03125],"min":[-0.3125,0,-0.5],"type":"VEC3"},{"bufferView":13,"componentType":5126,"count":2456,"max":[1,1,1],"min":[-1,-1,-1],"type":"VEC3"},{"bufferView":14,"componentType":5126,"count":2456,"max":[2.703125,2.5234375],"min":[0,0],"type":"VEC2"},{"bufferView":15,"componentType":5123,"count":3684,"max":[2455],"min":[0],"type":"SCALAR"},{"bufferView":16,"componentType":5126,"count":648,"max":[0.25,0.6875,0.25],"min":[-0.25,0,-0.28125],"type":"VEC3"},{"bufferView":17,"componentType":5126,"count":648,"max":[1,1,1],"min":[-1,-1,-1],"type":"VEC3"},{"bufferView":18,"componentType":5126,"count":648,"max":[1.9375,1.8125],"min":[0,0],"type":"VEC2"},{"bufferView":19,"componentType":5123,"count":972,"max":[647],"min":[0],"type":"SCALAR"},{"bufferView":20,"componentType":5126,"count":760,"max":[0.515625,0.40625,0.03125],"min":[-0.921875,0.03125,-0.21875],"type":"VEC3"},{"bufferView":21,"componentType":5126,"count":760,"max":[1,1,1],"min":[-1,-1,-1],"type":"VEC3"},{"bufferView":22,"componentType":5126,"count":760,"max":[1,1],"min":[0,0],"type":"VEC2"},{"bufferView":23,"componentType":5123,"count":1140,"max":[759],"min":[0],"type":"SCALAR"},{"bufferView":24,"componentType":5126,"count":184,"max":[0.5390625,0.31171876192092896,0.52734375],"min":[0.25078123807907104,0.17109374701976776,0.3375000059604645],"type":"VEC3"},{"bufferView":25,"componentType":5126,"count":184,"max":[1,1,1],"min":[-1,-1,-1],"type":"VEC3"},{"bufferView":26,"componentType":5126,"count":184,"max":[1,1],"min":[0,0],"type":"VEC2"},{"bufferView":27,"componentType":5123,"count":276,"max":[183],"min":[0],"type":"SCALAR"},{"bufferView":28,"componentType":5126,"count":648,"max":[0.25,0.6875,0.25],"min":[-0.25,0,-0.28125],"type":"VEC3"},{"bufferView":29,"componentType":5126,"count":648,"max":[1,1,1],"min":[-1,-1,-1],"type":"VEC3"},{"bufferView":30,"componentType":5126,"count":648,"max":[1.9375,1.8125],"min":[0,0],"type":"VEC2"},{"bufferView":31,"componentType":5123,"count":972,"max":[647],"min":[0],"type":"SCALAR"},{"bufferView":32,"componentType":5126,"count":184,"max":[-0.09375,0.28125,0.5],"min":[-0.46875,0,0.09375],"type":"VEC3"},{"bufferView":33,"componentType":5126,"count":184,"max":[1,1,1],"min":[-1,-1,-1],"type":"VEC3"},{"bufferView":34,"componentType":5126,"count":184,"max":[1,1],"min":[0,0],"type":"VEC2"},{"bufferView":35,"componentType":5123,"count":276,"max":[183],"min":[0],"type":"SCALAR"},{"bufferView":36,"componentType":5126,"count":218,"max":[0.1298343986272812,0.875,0.11662659049034119],"min":[-0.1298343986272812,0.515625,-0.11662659049034119],"type":"VEC3"},{"bufferView":37,"componentType":5126,"count":218,"max":[0.8660253882408142,1,1],"min":[-0.8660253882408142,-1,-1],"type":"VEC3"},{"bufferView":38,"componentType":5126,"count":218,"max":[0.09858749806880951,0.875],"min":[0,0],"type":"VEC2"},{"bufferView":39,"componentType":5123,"count":318,"max":[217],"min":[0],"type":"SCALAR"},{"bufferView":40,"componentType":5126,"count":632,"max":[0.25,0.6875,0.25],"min":[-0.25,0,-0.28125],"type":"VEC3"},{"bufferView":41,"componentType":5126,"count":632,"max":[1,1,1],"min":[-1,-1,-1],"type":"VEC3"},{"bufferView":42,"componentType":5126,"count":632,"max":[1.9375,1.8125],"min":[0,0],"type":"VEC2"},{"bufferView":43,"componentType":5123,"count":948,"max":[631],"min":[0],"type":"SCALAR"},{"bufferView":44,"componentType":5126,"count":184,"max":[-0.09375,0.28125,0.5],"min":[-0.46875,0,-0.5],"type":"VEC3"},{"bufferView":45,"componentType":5126,"count":184,"max":[1,1,1],"min":[-1,-1,-1],"type":"VEC3"},{"bufferView":46,"componentType":5126,"count":184,"max":[1,1],"min":[0,0],"type":"VEC2"},{"bufferView":47,"componentType":5123,"count":276,"max":[183],"min":[0],"type":"SCALAR"},{"bufferView":48,"componentType":5126,"count":712,"max":[0.484375,0.5,0.18481917679309845],"min":[-0.46875,-0.2265625,-0.04419417306780815],"type":"VEC3"},{"bufferView":49,"componentType":5126,"count":712,"max":[1,1,1],"min":[-1,-1,-1],"type":"VEC3"},{"bufferView":50,"componentType":5126,"count":712,"max":[1.09765625,1],"min":[0,0],"type":"VEC2"},{"bufferView":51,"componentType":5123,"count":1068,"max":[711],"min":[0],"type":"SCALAR"},{"bufferView":52,"componentType":5126,"count":218,"max":[0.1298343986272812,0.875,0.11662659049034119],"min":[-0.1298343986272812,0,-0.11662659049034119],"type":"VEC3"},{"bufferView":53,"componentType":5126,"count":218,"max":[0.8660253882408142,1,1],"min":[-0.8660253882408142,-1,-1],"type":"VEC3"},{"bufferView":54,"componentType":5126,"count":218,"max":[0.09858749806880951,0.875],"min":[0,0],"type":"VEC2"},{"bufferView":55,"componentType":5123,"count":318,"max":[217],"min":[0],"type":"SCALAR"},{"bufferView":56,"componentType":5126,"count":4440,"max":[0.8744390606880188,0.609375,0.375],"min":[0.2671875059604645,0.09375,0.2109375],"type":"VEC3"},{"bufferView":57,"componentType":5126,"count":4440,"max":[1,1,1],"min":[-1,-1,-1],"type":"VEC3"},{"bufferView":58,"componentType":5126,"count":4440,"max":[1.0148500204086304,1],"min":[0,0],"type":"VEC2"},{"bufferView":59,"componentType":5123,"count":6594,"max":[4439],"min":[0],"type":"SCALAR"},{"bufferView":60,"componentType":5126,"count":1004,"max":[0.59375,0.34375,0.21875],"min":[-0.75,-0.0625,-0.25],"type":"VEC3"},{"bufferView":61,"componentType":5126,"count":1004,"max":[1,1,1],"min":[-1,-1,-1],"type":"VEC3"},{"bufferView":62,"componentType":5126,"count":1004,"max":[1.21875,1],"min":[0,0],"type":"VEC2"},{"bufferView":63,"componentType":5123,"count":1500,"max":[1003],"min":[0],"type":"SCALAR"},{"bufferView":64,"componentType":5126,"count":4,"max":[0.71875,0,1.25],"min":[-0.71875,0,-1.25],"type":"VEC3"},{"bufferView":65,"componentType":5126,"count":4,"max":[0,1,0],"min":[0,1,0],"type":"VEC3"},{"bufferView":66,"componentType":5126,"count":4,"max":[1,1],"min":[0,0],"type":"VEC2"},{"bufferView":67,"componentType":5123,"count":6,"max":[3],"min":[0],"type":"SCALAR"}],"materials":[{"pbrMetallicRoughness":{"metallicFactor":0,"roughnessFactor":1},"alphaMode":"MASK","alphaCutoff":0.05,"doubleSided":true},{"pbrMetallicRoughness":{"metallicFactor":0,"roughnessFactor":1},"alphaMode":"MASK","alphaCutoff":0.05,"doubleSided":true}],"meshes":[{"primitives":[{"mode":4,"attributes":{"POSITION":0,"NORMAL":1,"TEXCOORD_0":2},"indices":3,"material":0}]},{"primitives":[{"mode":4,"attributes":{"POSITION":4,"NORMAL":5,"TEXCOORD_0":6},"indices":7,"material":0}]},{"primitives":[{"mode":4,"attributes":{"POSITION":8,"NORMAL":9,"TEXCOORD_0":10},"indices":11,"material":0}]},{"primitives":[{"mode":4,"attributes":{"POSITION":12,"NORMAL":13,"TEXCOORD_0":14},"indices":15,"material":0}]},{"primitives":[{"mode":4,"attributes":{"POSITION":16,"NORMAL":17,"TEXCOORD_0":18},"indices":19,"material":0}]},{"primitives":[{"mode":4,"attributes":{"POSITION":20,"NORMAL":21,"TEXCOORD_0":22},"indices":23,"material":1}]},{"primitives":[{"mode":4,"attributes":{"POSITION":24,"NORMAL":25,"TEXCOORD_0":26},"indices":27,"material":1}]},{"primitives":[{"mode":4,"attributes":{"POSITION":28,"NORMAL":29,"TEXCOORD_0":30},"indices":31,"material":0}]},{"primitives":[{"mode":4,"attributes":{"POSITION":32,"NORMAL":33,"TEXCOORD_0":34},"indices":35,"material":0}]},{"primitives":[{"mode":4,"attributes":{"POSITION":36,"NORMAL":37,"TEXCOORD_0":38},"indices":39,"material":0}]},{"primitives":[{"mode":4,"attributes":{"POSITION":40,"NORMAL":41,"TEXCOORD_0":42},"indices":43,"material":0}]},{"primitives":[{"mode":4,"attributes":{"POSITION":44,"NORMAL":45,"TEXCOORD_0":46},"indices":47,"material":0}]},{"primitives":[{"mode":4,"attributes":{"POSITION":48,"NORMAL":49,"TEXCOORD_0":50},"indices":51,"material":0}]},{"primitives":[{"mode":4,"attributes":{"POSITION":52,"NORMAL":53,"TEXCOORD_0":54},"indices":55,"material":0}]},{"primitives":[{"mode":4,"attributes":{"POSITION":56,"NORMAL":57,"TEXCOORD_0":58},"indices":59,"material":1}]},{"primitives":[{"mode":4,"attributes":{"POSITION":60,"NORMAL":61,"TEXCOORD_0":62},"indices":63,"material":1}]},{"primitives":[{"mode":4,"attributes":{"POSITION":64,"NORMAL":65,"TEXCOORD_0":66},"indices":67,"material":1}]}]}