{"asset":{"version":"2.0","generator":"Blockbench 4.12.2 glTF exporter"},"scenes":[{"nodes":[12],"name":"blockbench_export"}],"scene":0,"nodes":[{"name":"cuboid","mesh":0},{"name":"upstairs","children":[0]},{"rotation":[0,-1,0,6.123233995736766e-17],"translation":[-0.421875,0.1875,-3.78125],"name":"cuboid","mesh":1},{"rotation":[0,0.7071067811865475,0,0.7071067811865476],"translation":[1.25,0.1875,-3.4375],"name":"cuboid","mesh":2},{"rotation":[0,0.7071067811865475,0,0.7071067811865476],"translation":[1.03125,0.1875,-2.875],"name":"cuboid","mesh":3},{"name":"kitchen","children":[2,3,4]},{"translation":[-0.015625,0.484375,0.375],"name":"cuboid","mesh":4},{"rotation":[0,-0.7071067811865475,0,0.7071067811865476],"translation":[-0.015625,-0.03125,0.59375],"name":"cuboid","mesh":5},{"translation":[1.4375,0.21875,-2.515625],"name":"living Room","children":[6,7]},{"name":"cuboid","mesh":6},{"translation":[0,-1.640625,0],"name":"downstairs","children":[5,8,9]},{"translation":[0,1.671875,0.375],"name":"house","children":[1,10]},{"children":[11]}],"bufferViews":[{"buffer":0,"byteOffset":0,"byteLength":23376,"target":34962,"byteStride":12},{"buffer":0,"byteOffset":23376,"byteLength":23376,"target":34962,"byteStride":12},{"buffer":0,"byteOffset":46752,"byteLength":15584,"target":34962,"byteStride":8},{"buffer":0,"byteOffset":62336,"byteLength":5844,"target":34963},{"buffer":0,"byteOffset":68180,"byteLength":4416,"target":34962,"byteStride":12},{"buffer":0,"byteOffset":72596,"byteLength":4416,"target":34962,"byteStride":12},{"buffer":0,"byteOffset":77012,"byteLength":2944,"target":34962,"byteStride":8},{"buffer":0,"byteOffset":79956,"byteLength":1104,"target":34963},{"buffer":0,"byteOffset":81060,"byteLength":29472,"target":34962,"byteStride":12},{"buffer":0,"byteOffset":110532,"byteLength":29472,"target":34962,"byteStride":12},{"buffer":0,"byteOffset":140004,"byteLength":19648,"target":34962,"byteStride":8},{"buffer":0,"byteOffset":159652,"byteLength":7368,"target":34963},{"buffer":0,"byteOffset":167020,"byteLength":7776,"target":34962,"byteStride":12},{"buffer":0,"byteOffset":174796,"byteLength":7776,"target":34962,"byteStride":12},{"buffer":0,"byteOffset":182572,"byteLength":5184,"target":34962,"byteStride":8},{"buffer":0,"byteOffset":187756,"byteLength":1944,"target":34963},{"buffer":0,"byteOffset":189700,"byteLength":8544,"target":34962,"byteStride":12},{"buffer":0,"byteOffset":198244,"byteLength":8544,"target":34962,"byteStride":12},{"buffer":0,"byteOffset":206788,"byteLength":5696,"target":34962,"byteStride":8},{"buffer":0,"byteOffset":212484,"byteLength":2136,"target":34963},{"buffer":0,"byteOffset":214620,"byteLength":2208,"target":34962,"byteStride":12},{"buffer":0,"byteOffset":216828,"byteLength":2208,"target":34962,"byteStride":12},{"buffer":0,"byteOffset":219036,"byteLength":1472,"target":34962,"byteStride":8},{"buffer":0,"byteOffset":220508,"byteLength":552,"target":34963},{"buffer":0,"byteOffset":221060,"byteLength":24864,"target":34962,"byteStride":12},{"buffer":0,"byteOffset":245924,"byteLength":24864,"target":34962,"byteStride":12},{"buffer":0,"byteOffset":270788,"byteLength":16576,"target":34962,"byteStride":8},{"buffer":0,"byteOffset":287364,"byteLength":6216,"target":34963}],"buffers":[{"byteLength":293580,"uri":"data:application/octet-stream;base64,"}],"accessors":[{"bufferView":0,"componentType":5126,"count":1948,"max":[3.9375,1.640625,2.0625],"min":[-1.5,0,-4.3125],"type":"VEC3"},{"bufferView":1,"componentType":5126,"count":1948,"max":[1,1,1],"min":[-1,-1,-1],"type":"VEC3"},{"bufferView":2,"componentType":5126,"count":1948,"max":[1,1.03125],"min":[0,0],"type":"VEC2"},{"bufferView":3,"componentType":5123,"count":2922,"max":[1947],"min":[0],"type":"SCALAR"},{"bufferView":4,"componentType":5126,"count":368,"max":[0.5,1.109375,0.296875],"min":[-0.046875,0,-0.3125],"type":"VEC3"},{"bufferView":5,"componentType":5126,"count":368,"max":[1,1,1],"min":[-1,-1,-1],"type":"VEC3"},{"bufferView":6,"componentType":5126,"count":368,"max":[1.859375,2.3663625717163086],"min":[0,0],"type":"VEC2"},{"bufferView":7,"componentType":5123,"count":552,"max":[367],"min":[0],"type":"SCALAR"},{"bufferView":8,"componentType":5126,"count":2456,"max":[0.640625,0.578125,0.03125],"min":[-0.3125,0,-0.5],"type":"VEC3"},{"bufferView":9,"componentType":5126,"count":2456,"max":[1,1,1],"min":[-1,-1,-1],"type":"VEC3"},{"bufferView":10,"componentType":5126,"count":2456,"max":[2.703125,2.5234375],"min":[0,0],"type":"VEC2"},{"bufferView":11,"componentType":5123,"count":3684,"max":[2455],"min":[0],"type":"SCALAR"},{"bufferView":12,"componentType":5126,"count":648,"max":[0.25,0.6875,0.25],"min":[-0.25,0,-0.28125],"type":"VEC3"},{"bufferView":13,"componentType":5126,"count":648,"max":[1,1,1],"min":[-1,-1,-1],"type":"VEC3"},{"bufferView":14,"componentType":5126,"count":648,"max":[1.9375,1.8125],"min":[0,0],"type":"VEC2"},{"bufferView":15,"componentType":5123,"count":972,"max":[647],"min":[0],"type":"SCALAR"},{"bufferView":16,"componentType":5126,"count":712,"max":[0.484375,0.5,0.04419417306780815],"min":[-0.46875,-0.2265625,-0.18481917679309845],"type":"VEC3"},{"bufferView":17,"componentType":5126,"count":712,"max":[1,1,1],"min":[-1,-1,-1],"type":"VEC3"},{"bufferView":18,"componentType":5126,"count":712,"max":[1.09765625,1],"min":[0,0],"type":"VEC2"},{"bufferView":19,"componentType":5123,"count":1068,"max":[711],"min":[0],"type":"SCALAR"},{"bufferView":20,"componentType":5126,"count":184,"max":[-0.09375,0.28125,0.5],"min":[-0.46875,0,-0.5],"type":"VEC3"},{"bufferView":21,"componentType":5126,"count":184,"max":[1,1,1],"min":[-1,-1,-1],"type":"VEC3"},{"bufferView":22,"componentType":5126,"count":184,"max":[1,1],"min":[0,0],"type":"VEC2"},{"bufferView":23,"componentType":5123,"count":276,"max":[183],"min":[0],"type":"SCALAR"},{"bufferView":24,"componentType":5126,"count":2072,"max":[3.9375,1.640625,2.0625],"min":[-1.5,0,-4.3125],"type":"VEC3"},{"bufferView":25,"componentType":5126,"count":2072,"max":[1,1,1],"min":[-1,-1,-1],"type":"VEC3"},{"bufferView":26,"componentType":5126,"count":2072,"max":[1,1.03125],"min":[0,0],"type":"VEC2"},{"bufferView":27,"componentType":5123,"count":3108,"max":[2071],"min":[0],"type":"SCALAR"}],"materials":[{"pbrMetallicRoughness":{"metallicFactor":0,"roughnessFactor":1},"alphaMode":"MASK","alphaCutoff":0.05,"doubleSided":true}],"meshes":[{"primitives":[{"mode":4,"attributes":{"POSITION":0,"NORMAL":1,"TEXCOORD_0":2},"indices":3,"material":0}]},{"primitives":[{"mode":4,"attributes":{"POSITION":4,"NORMAL":5,"TEXCOORD_0":6},"indices":7,"material":0}]},{"primitives":[{"mode":4,"attributes":{"POSITION":8,"NORMAL":9,"TEXCOORD_0":10},"indices":11,"material":0}]},{"primitives":[{"mode":4,"attributes":{"POSITION":12,"NORMAL":13,"TEXCOORD_0":14},"indices":15,"material":0}]},{"primitives":[{"mode":4,"attributes":{"POSITION":16,"NORMAL":17,"TEXCOORD_0":18},"indices":19,"material":0}]},{"primitives":[{"mode":4,"attributes":{"POSITION":20,"NORMAL":21,"TEXCOORD_0":22},"indices":23,"material":0}]},{"primitives":[{"mode":4,"attributes":{"POSITION":24,"NORMAL":25,"TEXCOORD_0":26},"indices":27,"material":0}]}]}