{"asset":{"version":"2.0","generator":"Blockbench 4.11.2 glTF exporter"},"scenes":[{"nodes":[15],"name":"blockbench_export"}],"scene":0,"nodes":[{"translation":[0,-0.125,0],"name":"actualhead","mesh":0},{"translation":[0,-0.140625,0],"name":"hair","mesh":1},{"translation":[0,0.5625,0],"name":"head","children":[0,1]},{"rotation":[0,0,-0.13052619222005157,0.9914448613738104],"translation":[-0.015625,0,0],"name":"cuboid","mesh":2},{"rotation":[0,0,-0.13052619222005157,0.9914448613738104],"translation":[-0.015625,0,0],"name":"cuboid","mesh":3},{"translation":[-0.046875,0.203125,0],"name":"rightleg","children":[3,4]},{"rotation":[0,0,0.13052619222005157,0.9914448613738104],"translation":[0.015625,0,0],"name":"cuboid","mesh":4},{"rotation":[0,0,0.13052619222005157,0.9914448613738104],"translation":[0.015625,0,0],"name":"cuboid","mesh":5},{"translation":[0.046875,0.203125,0],"name":"leftleg","children":[6,7]},{"name":"cuboid","mesh":6},{"rotation":[0,0,0.3214394653031616,0.9469301294951057],"translation":[-0.046875,0.375,0],"name":"cuboid","mesh":7},{"rotation":[0,0,-0.3214394653031616,0.9469301294951057],"translation":[0.046875,0.375,0],"name":"cuboid","mesh":8},{"translation":[0,0.0625,0],"name":"cuboid","mesh":9},{"name":"cuboid","mesh":10},{"translation":[0,0.0625,0],"name":"torso","children":[5,8,9,10,11,12,13]},{"children":[2,14]}],"bufferViews":[{"buffer":0,"byteOffset":0,"byteLength":1536,"target":34962,"byteStride":12},{"buffer":0,"byteOffset":1536,"byteLength":1536,"target":34962,"byteStride":12},{"buffer":0,"byteOffset":3072,"byteLength":1024,"target":34962,"byteStride":8},{"buffer":0,"byteOffset":4096,"byteLength":384,"target":34963},{"buffer":0,"byteOffset":4480,"byteLength":3648,"target":34962,"byteStride":12},{"buffer":0,"byteOffset":8128,"byteLength":3648,"target":34962,"byteStride":12},{"buffer":0,"byteOffset":11776,"byteLength":2432,"target":34962,"byteStride":8},{"buffer":0,"byteOffset":14208,"byteLength":912,"target":34963},{"buffer":0,"byteOffset":15120,"byteLength":1824,"target":34962,"byteStride":12},{"buffer":0,"byteOffset":16944,"byteLength":1824,"target":34962,"byteStride":12},{"buffer":0,"byteOffset":18768,"byteLength":1216,"target":34962,"byteStride":8},{"buffer":0,"byteOffset":19984,"byteLength":456,"target":34963},{"buffer":0,"byteOffset":20440,"byteLength":480,"target":34962,"byteStride":12},{"buffer":0,"byteOffset":20920,"byteLength":480,"target":34962,"byteStride":12},{"buffer":0,"byteOffset":21400,"byteLength":320,"target":34962,"byteStride":8},{"buffer":0,"byteOffset":21720,"byteLength":120,"target":34963},{"buffer":0,"byteOffset":21840,"byteLength":480,"target":34962,"byteStride":12},{"buffer":0,"byteOffset":22320,"byteLength":480,"target":34962,"byteStride":12},{"buffer":0,"byteOffset":22800,"byteLength":320,"target":34962,"byteStride":8},{"buffer":0,"byteOffset":23120,"byteLength":120,"target":34963},{"buffer":0,"byteOffset":23240,"byteLength":1824,"target":34962,"byteStride":12},{"buffer":0,"byteOffset":25064,"byteLength":1824,"target":34962,"byteStride":12},{"buffer":0,"byteOffset":26888,"byteLength":1216,"target":34962,"byteStride":8},{"buffer":0,"byteOffset":28104,"byteLength":456,"target":34963},{"buffer":0,"byteOffset":28560,"byteLength":768,"target":34962,"byteStride":12},{"buffer":0,"byteOffset":29328,"byteLength":768,"target":34962,"byteStride":12},{"buffer":0,"byteOffset":30096,"byteLength":512,"target":34962,"byteStride":8},{"buffer":0,"byteOffset":30608,"byteLength":192,"target":34963},{"buffer":0,"byteOffset":30800,"byteLength":2976,"target":34962,"byteStride":12},{"buffer":0,"byteOffset":33776,"byteLength":2976,"target":34962,"byteStride":12},{"buffer":0,"byteOffset":36752,"byteLength":1984,"target":34962,"byteStride":8},{"buffer":0,"byteOffset":38736,"byteLength":744,"target":34963},{"buffer":0,"byteOffset":39480,"byteLength":2976,"target":34962,"byteStride":12},{"buffer":0,"byteOffset":42456,"byteLength":2976,"target":34962,"byteStride":12},{"buffer":0,"byteOffset":45432,"byteLength":1984,"target":34962,"byteStride":8},{"buffer":0,"byteOffset":47416,"byteLength":744,"target":34963},{"buffer":0,"byteOffset":48160,"byteLength":864,"target":34962,"byteStride":12},{"buffer":0,"byteOffset":49024,"byteLength":864,"target":34962,"byteStride":12},{"buffer":0,"byteOffset":49888,"byteLength":576,"target":34962,"byteStride":8},{"buffer":0,"byteOffset":50464,"byteLength":216,"target":34963},{"buffer":0,"byteOffset":50680,"byteLength":384,"target":34962,"byteStride":12},{"buffer":0,"byteOffset":51064,"byteLength":384,"target":34962,"byteStride":12},{"buffer":0,"byteOffset":51448,"byteLength":256,"target":34962,"byteStride":8},{"buffer":0,"byteOffset":51704,"byteLength":96,"target":34963}],"buffers":[{"byteLength":51800,"uri":"data:application/octet-stream;base64,"}],"accessors":[{"bufferView":0,"componentType":5126,"count":128,"max":[0.1875,0.4375,0.25],"min":[-0.1875,0.0625,-0.234375],"type":"VEC3"},{"bufferView":1,"componentType":5126,"count":128,"max":[0.9701424837112427,1,0.9659194946289062],"min":[-0.9701424837112427,-1,-0.9514225721359253],"type":"VEC3"},{"bufferView":2,"componentType":5126,"count":128,"max":[0.5453125238418579,0.6171875],"min":[0,0],"type":"VEC2"},{"bufferView":3,"componentType":5123,"count":192,"max":[127],"min":[0],"type":"SCALAR"},{"bufferView":4,"componentType":5126,"count":304,"max":[0.28125,0.515625,0.265625],"min":[-0.28125,0.046875,-0.26006370782852173],"type":"VEC3"},{"bufferView":5,"componentType":5126,"count":304,"max":[1,0.9752920269966125,0.9398398995399475],"min":[-0.9088845252990723,-0.46611487865448,-0.9644734859466553],"type":"VEC3"},{"bufferView":6,"componentType":5126,"count":304,"max":[0.5819406509399414,0.703125],"min":[0.0013769838260486722,0],"type":"VEC2"},{"bufferView":7,"componentType":5123,"count":456,"max":[303],"min":[0],"type":"SCALAR"},{"bufferView":8,"componentType":5126,"count":152,"max":[0.054721035063266754,0.006650408264249563,0.046875],"min":[-0.037964146584272385,-0.19354164600372314,-0.046875],"type":"VEC3"},{"bufferView":9,"componentType":5126,"count":152,"max":[1,0.9743334650993347,1],"min":[-0.9935382604598999,-0.9251787662506104,-1],"type":"VEC3"},{"bufferView":10,"componentType":5126,"count":152,"max":[0.4782960116863251,0.546875],"min":[0,0],"type":"VEC2"},{"bufferView":11,"componentType":5123,"count":228,"max":[151],"min":[0],"type":"SCALAR"},{"bufferView":12,"componentType":5126,"count":40,"max":[0.07034603506326675,0.006650408264249563,0.0625],"min":[-0.053589146584272385,-0.10286902636289597,-0.0625],"type":"VEC3"},{"bufferView":13,"componentType":5126,"count":40,"max":[0.9999491572380066,0.056167688220739365,1],"min":[-0.9885337352752686,-0.1510002166032791,-1],"type":"VEC3"},{"bufferView":14,"componentType":5126,"count":40,"max":[0.639930009841919,0.96875],"min":[0.008816271089017391,0],"type":"VEC2"},{"bufferView":15,"componentType":5123,"count":60,"max":[39],"min":[0],"type":"SCALAR"},{"bufferView":16,"componentType":5126,"count":40,"max":[0.053589146584272385,0.006650408264249563,0.0625],"min":[-0.07034603506326675,-0.10286902636289597,-0.0625],"type":"VEC3"},{"bufferView":17,"componentType":5126,"count":40,"max":[0.9885337352752686,0.056167688220739365,1],"min":[-0.9999491572380066,-0.1510002166032791,-1],"type":"VEC3"},{"bufferView":18,"componentType":5126,"count":40,"max":[0.639930009841919,0.96875],"min":[0.008816271089017391,0],"type":"VEC2"},{"bufferView":19,"componentType":5123,"count":60,"max":[39],"min":[0],"type":"SCALAR"},{"bufferView":20,"componentType":5126,"count":152,"max":[0.037964146584272385,0.006650408264249563,0.046875],"min":[-0.054721035063266754,-0.19354164600372314,-0.046875],"type":"VEC3"},{"bufferView":21,"componentType":5126,"count":152,"max":[0.9935382604598999,0.9743334650993347,1],"min":[-1,-0.9251787662506104,-1],"type":"VEC3"},{"bufferView":22,"componentType":5126,"count":152,"max":[0.4782960116863251,0.546875],"min":[0,0],"type":"VEC2"},{"bufferView":23,"componentType":5123,"count":228,"max":[151],"min":[0],"type":"SCALAR"},{"bufferView":24,"componentType":5126,"count":64,"max":[0.1025390625,0.4375,0.078125],"min":[-0.1025390625,0.15625,-0.078125],"type":"VEC3"},{"bufferView":25,"componentType":5126,"count":64,"max":[0.9714851379394531,1,0.9653192162513733],"min":[-0.9714851379394531,-0.8351836204528809,-0.9692307710647583],"type":"VEC3"},{"bufferView":26,"componentType":5126,"count":64,"max":[0.6979625225067139,0.78125],"min":[0,0],"type":"VEC2"},{"bufferView":27,"componentType":5123,"count":96,"max":[63],"min":[0],"type":"SCALAR"},{"bufferView":28,"componentType":5126,"count":248,"max":[0.0421072319149971,0.03874624893069267,0.03125],"min":[-0.2391427606344223,-0.03937875106930733,-0.03125],"type":"VEC3"},{"bufferView":29,"componentType":5126,"count":248,"max":[1,0.9339582920074463,1],"min":[-1,-0.9295468926429749,-1],"type":"VEC3"},{"bufferView":30,"componentType":5126,"count":248,"max":[0.71875,0.703125],"min":[0,0],"type":"VEC2"},{"bufferView":31,"componentType":5123,"count":372,"max":[247],"min":[0],"type":"SCALAR"},{"bufferView":32,"componentType":5126,"count":248,"max":[0.2391427606344223,0.03874624893069267,0.03125],"min":[-0.0421072319149971,-0.03937875106930733,-0.03125],"type":"VEC3"},{"bufferView":33,"componentType":5126,"count":248,"max":[1,0.9339582920074463,1],"min":[-1,-0.9295468926429749,-1],"type":"VEC3"},{"bufferView":34,"componentType":5126,"count":248,"max":[0.71875,0.703125],"min":[0,0],"type":"VEC2"},{"bufferView":35,"componentType":5123,"count":372,"max":[247],"min":[0],"type":"SCALAR"},{"bufferView":36,"componentType":5126,"count":72,"max":[0.15625,0.37616124749183655,0.09375],"min":[-0.15625,0.21875,-0.09375],"type":"VEC3"},{"bufferView":37,"componentType":5126,"count":72,"max":[0.8610336184501648,0.7584102153778076,1],"min":[-0.8610336184501648,0,-1],"type":"VEC3"},{"bufferView":38,"componentType":5126,"count":72,"max":[0.53125,0.5292249917984009],"min":[0,0],"type":"VEC2"},{"bufferView":39,"componentType":5123,"count":108,"max":[71],"min":[0],"type":"SCALAR"},{"bufferView":40,"componentType":5126,"count":32,"max":[0.109375,0.25,0.078125],"min":[-0.109375,0.15625,-0.078125],"type":"VEC3"},{"bufferView":41,"componentType":5126,"count":32,"max":[0.976900041103363,0.21369688212871552,0.965187668800354],"min":[-0.976900041103363,-0.8682431578636169,-0.9887977838516235],"type":"VEC3"},{"bufferView":42,"componentType":5126,"count":32,"max":[1,0.7250887155532837],"min":[0,0],"type":"VEC2"},{"bufferView":43,"componentType":5123,"count":48,"max":[31],"min":[0],"type":"SCALAR"}],"materials":[{"pbrMetallicRoughness":{"metallicFactor":0,"roughnessFactor":1,"baseColorTexture":{"index":0}},"alphaMode":"MASK","alphaCutoff":0.05,"doubleSided":true},{"pbrMetallicRoughness":{"metallicFactor":0,"roughnessFactor":1,"baseColorTexture":{"index":1}},"alphaMode":"MASK","alphaCutoff":0.05,"doubleSided":true},{"pbrMetallicRoughness":{"metallicFactor":0,"roughnessFactor":1,"baseColorTexture":{"index":2}},"alphaMode":"MASK","alphaCutoff":0.05,"doubleSided":true},{"pbrMetallicRoughness":{"metallicFactor":0,"roughnessFactor":1,"baseColorTexture":{"index":3}},"alphaMode":"MASK","alphaCutoff":0.05,"doubleSided":true},{"pbrMetallicRoughness":{"metallicFactor":0,"roughnessFactor":1,"baseColorTexture":{"index":4}},"alphaMode":"MASK","alphaCutoff":0.05,"doubleSided":true},{"pbrMetallicRoughness":{"metallicFactor":0,"roughnessFactor":1,"baseColorTexture":{"index":5}},"alphaMode":"MASK","alphaCutoff":0.05,"doubleSided":true},{"pbrMetallicRoughness":{"metallicFactor":0,"roughnessFactor":1,"baseColorTexture":{"index":6}},"alphaMode":"MASK","alphaCutoff":0.05,"doubleSided":true},{"pbrMetallicRoughness":{"metallicFactor":0,"roughnessFactor":1,"baseColorTexture":{"index":7}},"alphaMode":"MASK","alphaCutoff":0.05,"doubleSided":true}],"textures":[{"sampler":0,"source":0,"name":"hairsad.p.png"},{"sampler":1,"source":1,"name":"hair.png"},{"sampler":2,"source":2,"name":"leg.png"},{"sampler":3,"source":3,"name":"pantsbottom.png"},{"sampler":4,"source":4,"name":"torsogirl.png"},{"sampler":5,"source":5,"name":"arms.png"},{"sampler":6,"source":6,"name":"newponcho.png"},{"sampler":7,"source":7,"name":"texturepanttop.png"}],"samplers":[{"magFilter":9728,"minFilter":9728,"wrapS":33071,"wrapT":33071},{"magFilter":9728,"minFilter":9728,"wrapS":33071,"wrapT":33071},{"magFilter":9728,"minFilter":9728,"wrapS":33071,"wrapT":33071},{"magFilter":9728,"minFilter":9728,"wrapS":33071,"wrapT":33071},{"magFilter":9728,"minFilter":9728,"wrapS":33071,"wrapT":33071},{"magFilter":9728,"minFilter":9728,"wrapS":33071,"wrapT":33071},{"magFilter":9728,"minFilter":9728,"wrapS":33071,"wrapT":33071},{"magFilter":9728,"minFilter":9728,"wrapS":33071,"wrapT":33071}],"images":[{"mimeType":"image/png","uri":"data:image/png;base64,"},{"mimeType":"image/png","uri":"data:image/png;base64,"},{"mimeType":"image/png","uri":"data:image/png;base64,"},{"mimeType":"image/png","uri":"data:image/png;base64,"},{"mimeType":"image/png","uri":"data:image/png;base64,"},{"mimeType":"image/png","uri":"data:image/png;base64,"},{"mimeType":"image/png","uri":"data:image/png;base64,"},{"mimeType":"image/png","uri":"data:image/png;base64,"}],"meshes":[{"primitives":[{"mode":4,"attributes":{"POSITION":0,"NORMAL":1,"TEXCOORD_0":2},"indices":3,"material":0}]},{"primitives":[{"mode":4,"attributes":{"POSITION":4,"NORMAL":5,"TEXCOORD_0":6},"indices":7,"material":1}]},{"primitives":[{"mode":4,"attributes":{"POSITION":8,"NORMAL":9,"TEXCOORD_0":10},"indices":11,"material":2}]},{"primitives":[{"mode":4,"attributes":{"POSITION":12,"NORMAL":13,"TEXCOORD_0":14},"indices":15,"material":3}]},{"primitives":[{"mode":4,"attributes":{"POSITION":16,"NORMAL":17,"TEXCOORD_0":18},"indices":19,"material":3}]},{"primitives":[{"mode":4,"attributes":{"POSITION":20,"NORMAL":21,"TEXCOORD_0":22},"indices":23,"material":2}]},{"primitives":[{"mode":4,"attributes":{"POSITION":24,"NORMAL":25,"TEXCOORD_0":26},"indices":27,"material":4}]},{"primitives":[{"mode":4,"attributes":{"POSITION":28,"NORMAL":29,"TEXCOORD_0":30},"indices":31,"material":5}]},{"primitives":[{"mode":4,"attributes":{"POSITION":32,"NORMAL":33,"TEXCOORD_0":34},"indices":35,"material":5}]},{"primitives":[{"mode":4,"attributes":{"POSITION":36,"NORMAL":37,"TEXCOORD_0":38},"indices":39,"material":6}]},{"primitives":[{"mode":4,"attributes":{"POSITION":40,"NORMAL":41,"TEXCOORD_0":42},"indices":43,"material":7}]}]}