{"asset":{"version":"2.0","generator":"Blockbench 4.12.2 glTF exporter"},"scenes":[{"nodes":[8],"name":"blockbench_export"}],"scene":0,"nodes":[{"translation":[0,-1.046875,0],"name":"cuboid","mesh":0},{"translation":[0,0.046875,-0.375],"name":"cuboid","mesh":1},{"translation":[-0.5,0.046875,-0.375],"name":"cuboid","mesh":2},{"rotation":[0,-1,0,6.123233995736766e-17],"translation":[0.03125,-0.875,-4.171875],"name":"kitchen","children":[1,2]},{"translation":[0,-0.59375,0],"name":"downstairs","children":[0,3]},{"translation":[0,-1.046875,0],"name":"cuboid","mesh":3},{"translation":[0,1.046875,0],"name":"upstairs","children":[5]},{"translation":[0,1.59375,0.375],"name":"house","children":[4,6]},{"children":[7]}],"bufferViews":[{"buffer":0,"byteOffset":0,"byteLength":16512,"target":34962,"byteStride":12},{"buffer":0,"byteOffset":16512,"byteLength":16512,"target":34962,"byteStride":12},{"buffer":0,"byteOffset":33024,"byteLength":11008,"target":34962,"byteStride":8},{"buffer":0,"byteOffset":44032,"byteLength":4128,"target":34963},{"buffer":0,"byteOffset":48160,"byteLength":7776,"target":34962,"byteStride":12},{"buffer":0,"byteOffset":55936,"byteLength":7776,"target":34962,"byteStride":12},{"buffer":0,"byteOffset":63712,"byteLength":5184,"target":34962,"byteStride":8},{"buffer":0,"byteOffset":68896,"byteLength":1944,"target":34963},{"buffer":0,"byteOffset":70840,"byteLength":7776,"target":34962,"byteStride":12},{"buffer":0,"byteOffset":78616,"byteLength":7776,"target":34962,"byteStride":12},{"buffer":0,"byteOffset":86392,"byteLength":5184,"target":34962,"byteStride":8},{"buffer":0,"byteOffset":91576,"byteLength":1944,"target":34963},{"buffer":0,"byteOffset":93520,"byteLength":13440,"target":34962,"byteStride":12},{"buffer":0,"byteOffset":106960,"byteLength":13440,"target":34962,"byteStride":12},{"buffer":0,"byteOffset":120400,"byteLength":8960,"target":34962,"byteStride":8},{"buffer":0,"byteOffset":129360,"byteLength":3360,"target":34963}],"buffers":[{"byteLength":132720,"uri":"data:application/octet-stream;base64,"}],"accessors":[{"bufferView":0,"componentType":5126,"count":1376,"max":[3.9375,1.640625,2.0625],"min":[-1.5,0,-4.3125],"type":"VEC3"},{"bufferView":1,"componentType":5126,"count":1376,"max":[1,1,1],"min":[-1,-1,-1],"type":"VEC3"},{"bufferView":2,"componentType":5126,"count":1376,"max":[1,1.03125],"min":[0,0],"type":"VEC2"},{"bufferView":3,"componentType":5123,"count":2064,"max":[1375],"min":[0],"type":"SCALAR"},{"bufferView":4,"componentType":5126,"count":648,"max":[0.25,0.6875,0.25],"min":[-0.25,0,-0.28125],"type":"VEC3"},{"bufferView":5,"componentType":5126,"count":648,"max":[1,1,1],"min":[-1,-1,-1],"type":"VEC3"},{"bufferView":6,"componentType":5126,"count":648,"max":[1.9375,1.8125],"min":[0,0],"type":"VEC2"},{"bufferView":7,"componentType":5123,"count":972,"max":[647],"min":[0],"type":"SCALAR"},{"bufferView":8,"componentType":5126,"count":648,"max":[0.25,0.6875,0.25],"min":[-0.25,0,-0.28125],"type":"VEC3"},{"bufferView":9,"componentType":5126,"count":648,"max":[1,1,1],"min":[-1,-1,-1],"type":"VEC3"},{"bufferView":10,"componentType":5126,"count":648,"max":[1.9375,1.8125],"min":[0,0],"type":"VEC2"},{"bufferView":11,"componentType":5123,"count":972,"max":[647],"min":[0],"type":"SCALAR"},{"bufferView":12,"componentType":5126,"count":1120,"max":[3.9375,1.640625,2.0625],"min":[-1.5,0,-4.3125],"type":"VEC3"},{"bufferView":13,"componentType":5126,"count":1120,"max":[1,1,1],"min":[-1,-1,-1],"type":"VEC3"},{"bufferView":14,"componentType":5126,"count":1120,"max":[1,1.03125],"min":[0,0],"type":"VEC2"},{"bufferView":15,"componentType":5123,"count":1680,"max":[1119],"min":[0],"type":"SCALAR"}],"materials":[{"pbrMetallicRoughness":{"metallicFactor":0,"roughnessFactor":1},"alphaMode":"MASK","alphaCutoff":0.05,"doubleSided":true}],"meshes":[{"primitives":[{"mode":4,"attributes":{"POSITION":0,"NORMAL":1,"TEXCOORD_0":2},"indices":3,"material":0}]},{"primitives":[{"mode":4,"attributes":{"POSITION":4,"NORMAL":5,"TEXCOORD_0":6},"indices":7,"material":0}]},{"primitives":[{"mode":4,"attributes":{"POSITION":8,"NORMAL":9,"TEXCOORD_0":10},"indices":11,"material":0}]},{"primitives":[{"mode":4,"attributes":{"POSITION":12,"NORMAL":13,"TEXCOORD_0":14},"indices":15,"material":0}]}]}