{"asset":{"version":"2.0","generator":"Blockbench 4.12.2 glTF exporter"},"scenes":[{"nodes":[1],"name":"blockbench_export"}],"scene":0,"nodes":[{"name":"cuboid","mesh":0},{"children":[0]}],"bufferViews":[{"buffer":0,"byteOffset":0,"byteLength":9312,"target":34962,"byteStride":12},{"buffer":0,"byteOffset":9312,"byteLength":9312,"target":34962,"byteStride":12},{"buffer":0,"byteOffset":18624,"byteLength":6208,"target":34962,"byteStride":8},{"buffer":0,"byteOffset":24832,"byteLength":2328,"target":34963}],"buffers":[{"byteLength":27160,"uri":"data:application/octet-stream;base64,"}],"accessors":[{"bufferView":0,"componentType":5126,"count":776,"max":[1.3200825452804565,2.25,0.8825825452804565],"min":[-0.9450825452804565,0,-1.0700825452804565],"type":"VEC3"},{"bufferView":1,"componentType":5126,"count":776,"max":[1,1,1],"min":[-1,-1,-1],"type":"VEC3"},{"bufferView":2,"componentType":5126,"count":776,"max":[0.5193933844566345,0.47265625],"min":[0.0006154297152534127,0],"type":"VEC2"},{"bufferView":3,"componentType":5123,"count":1164,"max":[775],"min":[0],"type":"SCALAR"}],"materials":[{"pbrMetallicRoughness":{"metallicFactor":0,"roughnessFactor":1,"baseColorTexture":{"index":0}},"alphaMode":"MASK","alphaCutoff":0.05,"doubleSided":true}],"textures":[{"sampler":0,"source":0,"name":"medium_building"}],"samplers":[{"magFilter":9728,"minFilter":9728,"wrapS":33071,"wrapT":33071}],"images":[{"mimeType":"image/png","uri":"data:image/png;base64,"}],"meshes":[{"primitives":[{"mode":4,"attributes":{"POSITION":0,"NORMAL":1,"TEXCOORD_0":2},"indices":3,"material":0}]}]}