{"asset":{"version":"2.0","generator":"Blockbench 4.12.2 glTF exporter"},"scenes":[{"nodes":[1],"name":"blockbench_export"}],"scene":0,"nodes":[{"rotation":[0,-1,0,6.123233995736766e-17],"name":"cuboid","mesh":0},{"children":[0]}],"bufferViews":[{"buffer":0,"byteOffset":0,"byteLength":7584,"target":34962,"byteStride":12},{"buffer":0,"byteOffset":7584,"byteLength":7584,"target":34962,"byteStride":12},{"buffer":0,"byteOffset":15168,"byteLength":5056,"target":34962,"byteStride":8},{"buffer":0,"byteOffset":20224,"byteLength":1824,"target":34963}],"buffers":[{"byteLength":22048,"uri":"data:application/octet-stream;base64,"}],"accessors":[{"bufferView":0,"componentType":5126,"count":632,"max":[2.1875,2.3125,0.75],"min":[-2.875,0,-0.625],"type":"VEC3"},{"bufferView":1,"componentType":5126,"count":632,"max":[1,1,1],"min":[-1,-1,-1],"type":"VEC3"},{"bufferView":2,"componentType":5126,"count":632,"max":[0.61328125,0.47265625],"min":[0,0],"type":"VEC2"},{"bufferView":3,"componentType":5123,"count":912,"max":[631],"min":[0],"type":"SCALAR"}],"materials":[{"pbrMetallicRoughness":{"metallicFactor":0,"roughnessFactor":1,"baseColorTexture":{"index":0}},"alphaMode":"MASK","alphaCutoff":0.05,"doubleSided":true}],"textures":[{"sampler":0,"source":0,"name":"off_site_building"}],"samplers":[{"magFilter":9728,"minFilter":9728,"wrapS":33071,"wrapT":33071}],"images":[{"mimeType":"image/png","uri":"data:image/png;base64,"}],"meshes":[{"primitives":[{"mode":4,"attributes":{"POSITION":0,"NORMAL":1,"TEXCOORD_0":2},"indices":3,"material":0}]}]}