{"asset":{"version":"2.0","generator":"Blockbench 4.12.2 glTF exporter"},"scenes":[{"nodes":[1],"name":"blockbench_export"}],"scene":0,"nodes":[{"rotation":[0,-1,0,6.123233995736766e-17],"translation":[0.4375,7.4375,0.390625],"name":"skyscraper","mesh":0},{"children":[0]}],"bufferViews":[{"buffer":0,"byteOffset":0,"byteLength":10752,"target":34962,"byteStride":12},{"buffer":0,"byteOffset":10752,"byteLength":10752,"target":34962,"byteStride":12},{"buffer":0,"byteOffset":21504,"byteLength":7168,"target":34962,"byteStride":8},{"buffer":0,"byteOffset":28672,"byteLength":2688,"target":34963}],"buffers":[{"byteLength":31360,"uri":"data:application/octet-stream;base64,"}],"accessors":[{"bufferView":0,"componentType":5126,"count":896,"max":[1.9375,3.109375,2.5625],"min":[-1.125,-7.4375,-1.8125],"type":"VEC3"},{"bufferView":1,"componentType":5126,"count":896,"max":[1,1,1],"min":[-1,-1,-1],"type":"VEC3"},{"bufferView":2,"componentType":5126,"count":896,"max":[0.46484375,0.568359375],"min":[0,0],"type":"VEC2"},{"bufferView":3,"componentType":5123,"count":1344,"max":[895],"min":[0],"type":"SCALAR"}],"materials":[{"pbrMetallicRoughness":{"metallicFactor":0,"roughnessFactor":1,"baseColorTexture":{"index":0}},"alphaMode":"MASK","alphaCutoff":0.05,"doubleSided":true}],"textures":[{"sampler":0,"source":0,"name":"texture"}],"samplers":[{"magFilter":9728,"minFilter":9728,"wrapS":33071,"wrapT":33071}],"images":[{"mimeType":"image/png","uri":"data:image/png;base64,"}],"meshes":[{"primitives":[{"mode":4,"attributes":{"POSITION":0,"NORMAL":1,"TEXCOORD_0":2},"indices":3,"material":0}]}]}