{"asset":{"version":"2.0","generator":"Blockbench 4.12.2 glTF exporter"},"scenes":[{"nodes":[1],"name":"blockbench_export"}],"scene":0,"nodes":[{"name":"cylinder","mesh":0},{"children":[0]}],"bufferViews":[{"buffer":0,"byteOffset":0,"byteLength":3192,"target":34962,"byteStride":12},{"buffer":0,"byteOffset":3192,"byteLength":3192,"target":34962,"byteStride":12},{"buffer":0,"byteOffset":6384,"byteLength":2128,"target":34962,"byteStride":8},{"buffer":0,"byteOffset":8512,"byteLength":756,"target":34963}],"buffers":[{"byteLength":9268,"uri":"data:application/octet-stream;base64,"}],"accessors":[{"bufferView":0,"componentType":5126,"count":266,"max":[1.6035441160202026,2.625,1.5625],"min":[-1.6035441160202026,0,-1.6174581050872803],"type":"VEC3"},{"bufferView":1,"componentType":5126,"count":266,"max":[0.9602665305137634,1,0.9818784594535828],"min":[-0.9604172110557556,-1,-0.9396968483924866],"type":"VEC3"},{"bufferView":2,"componentType":5126,"count":266,"max":[0.44921875,0.5390625],"min":[0,0],"type":"VEC2"},{"bufferView":3,"componentType":5123,"count":378,"max":[265],"min":[0],"type":"SCALAR"}],"materials":[{"pbrMetallicRoughness":{"metallicFactor":0,"roughnessFactor":1,"baseColorTexture":{"index":0}},"alphaMode":"MASK","alphaCutoff":0.05,"doubleSided":true}],"textures":[{"sampler":0,"source":0,"name":"steam_stack"}],"samplers":[{"magFilter":9728,"minFilter":9728,"wrapS":33071,"wrapT":33071}],"images":[{"mimeType":"image/png","uri":"data:image/png;base64,"}],"meshes":[{"primitives":[{"mode":4,"attributes":{"POSITION":0,"NORMAL":1,"TEXCOORD_0":2},"indices":3,"material":0}]}]}