{"asset":{"version":"2.0","generator":"Blockbench 4.12.2 glTF exporter"},"scenes":[{"nodes":[1],"name":"blockbench_export"}],"scene":0,"nodes":[{"translation":[-0.1506249999999998,2.215625,0.07375000000000043],"name":"cuboid","mesh":0},{"children":[0]}],"bufferViews":[{"buffer":0,"byteOffset":0,"byteLength":11040,"target":34962,"byteStride":12},{"buffer":0,"byteOffset":11040,"byteLength":11040,"target":34962,"byteStride":12},{"buffer":0,"byteOffset":22080,"byteLength":7360,"target":34962,"byteStride":8},{"buffer":0,"byteOffset":29440,"byteLength":2760,"target":34963}],"buffers":[{"byteLength":32200,"uri":"data:application/octet-stream;base64,"}],"accessors":[{"bufferView":0,"componentType":5126,"count":920,"max":[0.9504594206809998,2.659374952316284,0.6354594230651855],"min":[-0.6804594397544861,-2.25,-0.7704594135284424],"type":"VEC3"},{"bufferView":1,"componentType":5126,"count":920,"max":[1,1,1],"min":[-1,-1,-1],"type":"VEC3"},{"bufferView":2,"componentType":5126,"count":920,"max":[0.530681848526001,0.51953125],"min":[0.0005986327887512743,0],"type":"VEC2"},{"bufferView":3,"componentType":5123,"count":1380,"max":[919],"min":[0],"type":"SCALAR"}],"materials":[{"pbrMetallicRoughness":{"metallicFactor":0,"roughnessFactor":1,"baseColorTexture":{"index":0}},"alphaMode":"MASK","alphaCutoff":0.05,"doubleSided":true}],"textures":[{"sampler":0,"source":0,"name":"texture"}],"samplers":[{"magFilter":9728,"minFilter":9728,"wrapS":33071,"wrapT":33071}],"images":[{"mimeType":"image/png","uri":"data:image/png;base64,"}],"meshes":[{"primitives":[{"mode":4,"attributes":{"POSITION":0,"NORMAL":1,"TEXCOORD_0":2},"indices":3,"material":0}]}]}