{"asset":{"version":"2.0","generator":"Blockbench 4.12.2 glTF exporter"},"scenes":[{"nodes":[1],"name":"blockbench_export"}],"scene":0,"nodes":[{"translation":[-0.75,-0.8125,0.4375],"name":"cuboid","mesh":0},{"children":[0]}],"bufferViews":[{"buffer":0,"byteOffset":0,"byteLength":5424,"target":34962,"byteStride":12},{"buffer":0,"byteOffset":5424,"byteLength":5424,"target":34962,"byteStride":12},{"buffer":0,"byteOffset":10848,"byteLength":3616,"target":34962,"byteStride":8},{"buffer":0,"byteOffset":14464,"byteLength":1356,"target":34963}],"buffers":[{"byteLength":15820,"uri":"data:application/octet-stream;base64,"}],"accessors":[{"bufferView":0,"componentType":5126,"count":452,"max":[1.25,2.2100000381469727,0.36664101481437683],"min":[0.30000001192092896,0.800000011920929,-1.1425000429153442],"type":"VEC3"},{"bufferView":1,"componentType":5126,"count":452,"max":[1,0.9472805857658386,1],"min":[-1,-1,-1],"type":"VEC3"},{"bufferView":2,"componentType":5126,"count":452,"max":[0.520312488079071,0.45703125],"min":[0.001379584544338286,0],"type":"VEC2"},{"bufferView":3,"componentType":5123,"count":678,"max":[451],"min":[0],"type":"SCALAR"}],"materials":[{"pbrMetallicRoughness":{"metallicFactor":0,"roughnessFactor":1,"baseColorTexture":{"index":0}},"alphaMode":"MASK","alphaCutoff":0.05,"doubleSided":true}],"textures":[{"sampler":0,"source":0,"name":"townhouse"}],"samplers":[{"magFilter":9728,"minFilter":9728,"wrapS":33071,"wrapT":33071}],"images":[{"mimeType":"image/png","uri":"data:image/png;base64,"}],"meshes":[{"primitives":[{"mode":4,"attributes":{"POSITION":0,"NORMAL":1,"TEXCOORD_0":2},"indices":3,"material":0}]}]}