{"asset":{"version":"2.0","generator":"Blockbench 4.12.2 glTF exporter"},"scenes":[{"nodes":[3],"name":"blockbench_export"}],"scene":0,"nodes":[{"translation":[9.0625,0.03125,-4.71875],"name":"office_walls","mesh":0},{"translation":[9.0625,0.03125,-4.71875],"name":"office_floor","mesh":1},{"translation":[-7.703125,0,5.5625],"name":"office","children":[0,1]},{"children":[2]}],"bufferViews":[{"buffer":0,"byteOffset":0,"byteLength":10512,"target":34962,"byteStride":12},{"buffer":0,"byteOffset":10512,"byteLength":10512,"target":34962,"byteStride":12},{"buffer":0,"byteOffset":21024,"byteLength":7008,"target":34962,"byteStride":8},{"buffer":0,"byteOffset":28032,"byteLength":2628,"target":34963},{"buffer":0,"byteOffset":30660,"byteLength":6912,"target":34962,"byteStride":12},{"buffer":0,"byteOffset":37572,"byteLength":6912,"target":34962,"byteStride":12},{"buffer":0,"byteOffset":44484,"byteLength":4608,"target":34962,"byteStride":8},{"buffer":0,"byteOffset":49092,"byteLength":1728,"target":34963}],"buffers":[{"byteLength":50820,"uri":"data:application/octet-stream;base64,"}],"accessors":[{"bufferView":0,"componentType":5126,"count":876,"max":[3.0625,1.640625,4.234375],"min":[-4.25,0.1875,-8.703125],"type":"VEC3"},{"bufferView":1,"componentType":5126,"count":876,"max":[1,1,1],"min":[-1,-1,-1],"type":"VEC3"},{"bufferView":2,"componentType":5126,"count":876,"max":[12.9375,5.625],"min":[0,0],"type":"VEC2"},{"bufferView":3,"componentType":5123,"count":1314,"max":[875],"min":[0],"type":"SCALAR"},{"bufferView":4,"componentType":5126,"count":576,"max":[3.0625,0.1875,4.234375],"min":[-4.25,0,-8.703125],"type":"VEC3"},{"bufferView":5,"componentType":5126,"count":576,"max":[1,1,1],"min":[-1,-1,-1],"type":"VEC3"},{"bufferView":6,"componentType":5126,"count":576,"max":[2.3125,12.9375],"min":[0,0],"type":"VEC2"},{"bufferView":7,"componentType":5123,"count":864,"max":[575],"min":[0],"type":"SCALAR"}],"materials":[{"pbrMetallicRoughness":{"metallicFactor":0,"roughnessFactor":1},"alphaMode":"MASK","alphaCutoff":0.05,"doubleSided":true}],"meshes":[{"primitives":[{"mode":4,"attributes":{"POSITION":0,"NORMAL":1,"TEXCOORD_0":2},"indices":3,"material":0}]},{"primitives":[{"mode":4,"attributes":{"POSITION":4,"NORMAL":5,"TEXCOORD_0":6},"indices":7,"material":0}]}]}