{"asset":{"version":"2.0","generator":"Blockbench 4.12.2 glTF exporter"},"scenes":[{"nodes":[2],"name":"blockbench_export"}],"scene":0,"nodes":[{"translation":[0.28125,0.25,0.359375],"name":"cuboid","mesh":0},{"rotation":[0,-1,0,6.123233995736766e-17],"translation":[-0.0625,0.21875,-0.015625],"name":"cars","children":[0]},{"children":[1]}],"bufferViews":[{"buffer":0,"byteOffset":0,"byteLength":15552,"target":34962,"byteStride":12},{"buffer":0,"byteOffset":15552,"byteLength":15552,"target":34962,"byteStride":12},{"buffer":0,"byteOffset":31104,"byteLength":10368,"target":34962,"byteStride":8},{"buffer":0,"byteOffset":41472,"byteLength":168,"target":34963},{"buffer":0,"byteOffset":41640,"byteLength":192,"target":34963},{"buffer":0,"byteOffset":41832,"byteLength":192,"target":34963},{"buffer":0,"byteOffset":42024,"byteLength":192,"target":34963},{"buffer":0,"byteOffset":42216,"byteLength":192,"target":34963},{"buffer":0,"byteOffset":42408,"byteLength":2568,"target":34963},{"buffer":0,"byteOffset":44976,"byteLength":168,"target":34963}],"buffers":[{"byteLength":45144,"uri":"data:application/octet-stream;base64,"}],"accessors":[{"bufferView":0,"componentType":5126,"count":1296,"max":[0.71875,0.703125,0.25],"min":[-1.328125,-0.5,-0.96875],"type":"VEC3"},{"bufferView":1,"componentType":5126,"count":1296,"max":[1,1,1],"min":[-1,-1,-1],"type":"VEC3"},{"bufferView":2,"componentType":5126,"count":1296,"max":[0.6875,0.625],"min":[0,0],"type":"VEC2"},{"bufferView":3,"componentType":5123,"count":84,"max":[55],"min":[0],"type":"SCALAR"},{"bufferView":4,"componentType":5123,"count":96,"max":[135],"min":[56],"type":"SCALAR"},{"bufferView":5,"componentType":5123,"count":96,"max":[215],"min":[136],"type":"SCALAR"},{"bufferView":6,"componentType":5123,"count":96,"max":[295],"min":[216],"type":"SCALAR"},{"bufferView":7,"componentType":5123,"count":96,"max":[375],"min":[296],"type":"SCALAR"},{"bufferView":8,"componentType":5123,"count":1284,"max":[1239],"min":[376],"type":"SCALAR"},{"bufferView":9,"componentType":5123,"count":84,"max":[1295],"min":[1240],"type":"SCALAR"}],"materials":[{"pbrMetallicRoughness":{"metallicFactor":0,"roughnessFactor":1,"baseColorTexture":{"index":0}},"alphaMode":"MASK","alphaCutoff":0.05,"doubleSided":true},{"pbrMetallicRoughness":{"metallicFactor":0,"roughnessFactor":1,"baseColorTexture":{"index":1}},"alphaMode":"MASK","alphaCutoff":0.05,"doubleSided":true},{"pbrMetallicRoughness":{"metallicFactor":0,"roughnessFactor":1,"baseColorTexture":{"index":2}},"alphaMode":"MASK","alphaCutoff":0.05,"doubleSided":true},{"pbrMetallicRoughness":{"metallicFactor":0,"roughnessFactor":1,"baseColorTexture":{"index":3}},"alphaMode":"MASK","alphaCutoff":0.05,"doubleSided":true},{"pbrMetallicRoughness":{"metallicFactor":0,"roughnessFactor":1,"baseColorTexture":{"index":4}},"alphaMode":"MASK","alphaCutoff":0.05,"doubleSided":true}],"textures":[{"sampler":0,"source":0,"name":"right_blue_car_mirror.png"},{"sampler":1,"source":1,"name":"wheel_right.png"},{"sampler":2,"source":2,"name":"left_wheel.png"},{"sampler":3,"source":3,"name":"blue_car.png"},{"sampler":4,"source":4,"name":"left_blue_car_mirror.png"}],"samplers":[{"magFilter":9728,"minFilter":9728,"wrapS":33071,"wrapT":33071},{"magFilter":9728,"minFilter":9728,"wrapS":33071,"wrapT":33071},{"magFilter":9728,"minFilter":9728,"wrapS":33071,"wrapT":33071},{"magFilter":9728,"minFilter":9728,"wrapS":33071,"wrapT":33071},{"magFilter":9728,"minFilter":9728,"wrapS":33071,"wrapT":33071}],"images":[{"mimeType":"image/png","uri":"data:image/png;base64,"},{"mimeType":"image/png","uri":"data:image/png;base64,"},{"mimeType":"image/png","uri":"data:image/png;base64,"},{"mimeType":"image/png","uri":"data:image/png;base64,"},{"mimeType":"image/png","uri":"data:image/png;base64,"}],"meshes":[{"primitives":[{"mode":4,"attributes":{"POSITION":0,"NORMAL":1,"TEXCOORD_0":2},"indices":3,"material":0},{"mode":4,"attributes":{"POSITION":0,"NORMAL":1,"TEXCOORD_0":2},"indices":4,"material":1},{"mode":4,"attributes":{"POSITION":0,"NORMAL":1,"TEXCOORD_0":2},"indices":5,"material":2},{"mode":4,"attributes":{"POSITION":0,"NORMAL":1,"TEXCOORD_0":2},"indices":6,"material":1},{"mode":4,"attributes":{"POSITION":0,"NORMAL":1,"TEXCOORD_0":2},"indices":7,"material":2},{"mode":4,"attributes":{"POSITION":0,"NORMAL":1,"TEXCOORD_0":2},"indices":8,"material":3},{"mode":4,"attributes":{"POSITION":0,"NORMAL":1,"TEXCOORD_0":2},"indices":9,"material":4}]}]}