{"asset":{"version":"2.0","generator":"Blockbench 4.12.2 glTF exporter"},"scenes":[{"nodes":[2],"name":"blockbench_export"}],"scene":0,"nodes":[{"translation":[0,0.5,0.0625],"name":"cuboid","mesh":0},{"translation":[0,0.125,-0.0625],"name":"bone","children":[0]},{"children":[1]}],"bufferViews":[{"buffer":0,"byteOffset":0,"byteLength":4512,"target":34962,"byteStride":12},{"buffer":0,"byteOffset":4512,"byteLength":4512,"target":34962,"byteStride":12},{"buffer":0,"byteOffset":9024,"byteLength":3008,"target":34962,"byteStride":8},{"buffer":0,"byteOffset":12032,"byteLength":408,"target":34963},{"buffer":0,"byteOffset":12440,"byteLength":720,"target":34963}],"buffers":[{"byteLength":13160,"uri":"data:application/octet-stream;base64,"}],"accessors":[{"bufferView":0,"componentType":5126,"count":376,"max":[0.375,0.4375,0.25],"min":[-0.375,-0.5625,-0.40625],"type":"VEC3"},{"bufferView":1,"componentType":5126,"count":376,"max":[1,1,1],"min":[-1,-1,-1],"type":"VEC3"},{"bufferView":2,"componentType":5126,"count":376,"max":[0.765625,0.6875],"min":[0,0],"type":"VEC2"},{"bufferView":3,"componentType":5123,"count":204,"max":[135],"min":[0],"type":"SCALAR"},{"bufferView":4,"componentType":5123,"count":360,"max":[375],"min":[136],"type":"SCALAR"}],"materials":[{"pbrMetallicRoughness":{"metallicFactor":0,"roughnessFactor":1,"baseColorTexture":{"index":0}},"alphaMode":"MASK","alphaCutoff":0.05,"doubleSided":true},{"pbrMetallicRoughness":{"metallicFactor":0,"roughnessFactor":1,"baseColorTexture":{"index":1}},"alphaMode":"MASK","alphaCutoff":0.05,"doubleSided":true}],"textures":[{"sampler":0,"source":0,"name":"texture"},{"sampler":1,"source":1,"name":"texture"}],"samplers":[{"magFilter":9728,"minFilter":9728,"wrapS":33071,"wrapT":33071},{"magFilter":9728,"minFilter":9728,"wrapS":33071,"wrapT":33071}],"images":[{"mimeType":"image/png","uri":"data:image/png;base64,"},{"mimeType":"image/png","uri":"data:image/png;base64,"}],"meshes":[{"primitives":[{"mode":4,"attributes":{"POSITION":0,"NORMAL":1,"TEXCOORD_0":2},"indices":3,"material":0},{"mode":4,"attributes":{"POSITION":0,"NORMAL":1,"TEXCOORD_0":2},"indices":4,"material":1}]}]}